Coordinates
version=1
nRows=26
nColumns=30
inDegrees=yes

Units are S.I. units (second, meters, Newtons, ...)
Angles are in degrees.

endheader
time	floatyaw	floatroll	floatpitch	floatx	floaty	floatz	pro_sup_l	deviation_l	flexion_l	cmc_flexion_l	cmc_abduction_l	mp_flexion_l	ip_flexion_l	2mcp_flexion_l	2mcp_abduction_l	2pm_flexion_l	2md_flexion_l	3mcp_flexion_l	3mcp_abduction_l	3pm_flexion_l	3md_flexion_l	4mcp_flexion_l	4mcp_abduction_l	4pm_flexion_l	4md_flexion_l	5mcp_flexion_l	5mcp_abduction_l	5pm_flexion_l	5md_flexion_l
0.005000	-160.147433	-5.066637	-73.570646	-0.061848	-0.128508	-0.129239	12.281818	-27.359629	-3.020340	13.002020	-10.845335	-28.573096	-49.031146	44.437663	14.465524	56.038795	49.014378	50.370094	6.155680	62.033835	43.880441	35.597591	-6.317506	73.175868	57.224284	-3.765860	-12.127563	80.885487	62.801593
0.015000	-160.147433	-5.066637	-73.570646	-0.061200	-0.124187	-0.130000	9.934054	-27.475266	-3.804852	11.193878	-10.963974	-29.060535	-49.331480	47.040557	15.321854	55.020641	51.927998	52.535632	6.300393	64.436770	47.166505	37.179484	-6.371096	76.943432	61.948447	-4.049264	-12.618120	80.870832	64.995172
0.025000	-160.147433	-5.066637	-73.570646	-0.060143	-0.120294	-0.130031	8.399000	-27.035672	-3.995423	9.518585	-11.014757	-29.273724	-49.178004	47.964062	15.690577	53.152739	53.953051	52.906412	6.360046	65.664651	50.095682	37.693401	-6.356462	78.717944	65.309523	-4.075629	-12.896929	79.670954	66.259310
0.035000	-160.147433	-5.066637	-73.570646	-0.059052	-0.117134	-0.129598	7.602454	-26.333155	-3.608859	8.132144	-11.126893	-29.259427	-48.696474	47.571613	15.725198	51.137139	55.219895	52.185742	6.384925	65.954704	52.533543	37.419337	-6.329930	78.952209	67.290842	-4.100569	-13.045926	78.000930	66.910739
0.045000	-160.147433	-5.066637	-73.570646	-0.058156	-0.114899	-0.128973	7.373875	-25.606240	-2.829955	7.141972	-11.317962	-29.117083	-48.099110	46.424839	15.611423	49.588889	55.970057	51.127423	6.408652	65.721915	54.421973	36.727535	-6.330075	78.384842	68.171771	-4.290987	-13.145647	76.500356	67.254164
0.055000	-160.147433	-5.066637	-73.570646	-0.057526	-0.113629	-0.128358	7.500100	-24.979718	-1.906882	6.583839	-11.524516	-28.928329	-47.561718	45.036274	15.492932	48.802778	56.422695	50.238427	6.444869	65.356136	55.770877	35.921500	-6.368626	77.686643	68.362102	-4.691969	-13.246227	75.542247	67.476797
0.065000	-160.147433	-5.066637	-73.570646	-0.057114	-0.113203	-0.127874	7.782270	-24.467966	-1.057482	6.410999	-11.661625	-28.732701	-47.164386	43.732621	15.437335	48.714399	56.705309	49.690471	6.494223	65.091371	56.649211	35.168748	-6.435228	77.243198	68.248170	-5.244251	-13.361856	75.183404	67.639106
0.075000	-160.147433	-5.066637	-73.570646	-0.056826	-0.113372	-0.127559	8.073492	-24.027892	-0.415914	6.510406	-11.671656	-28.542846	-46.904863	42.646770	15.445583	49.035321	56.862033	49.411825	6.552621	64.986411	57.168399	34.520111	-6.509852	77.131084	68.100787	-5.836091	-13.482604	75.247969	67.733490
0.085000	-160.147433	-5.066637	-73.570646	-0.056582	-0.113833	-0.127400	8.289648	-23.620595	-0.021663	6.741786	-11.543607	-28.368770	-46.745225	41.788167	15.485236	49.448885	56.903064	49.248714	6.615639	64.986293	57.455424	33.970383	-6.574833	77.230908	68.053603	-6.363478	-13.591011	75.479604	67.753261
0.095000	-160.147433	-5.066637	-73.570646	-0.056352	-0.114321	-0.127355	8.400302	-23.244581	0.158893	6.980552	-11.306618	-28.228881	-46.650754	41.124050	15.522911	49.751744	56.846361	49.090997	6.679270	65.006138	57.622201	33.510496	-6.621307	77.375661	68.129960	-6.769483	-13.674114	75.677070	67.725332
0.105000	-160.147433	-5.066637	-73.570646	-0.056147	-0.114668	-0.127375	8.412172	-22.929695	0.195013	7.146409	-11.011224	-28.144003	-46.603287	40.626969	15.541187	49.891353	56.726674	48.914050	6.739489	64.990645	57.742421	33.146719	-6.649298	77.454343	68.287790	-7.048976	-13.727985	75.755901	67.697639
0.115000	-160.147433	-5.066637	-73.570646	-0.055993	-0.114824	-0.127423	8.353699	-22.707623	0.157124	7.210758	-10.710499	-28.123409	-46.593912	40.281154	15.539086	49.919738	56.580053	48.750372	6.792363	64.931658	57.844769	32.890802	-6.663902	77.442421	68.461427	-7.228247	-13.756474	75.732384	67.705882
0.125000	-160.147433	-5.066637	-73.570646	-0.055903	-0.114832	-0.127473	8.262756	-22.584907	0.097410	7.186748	-10.447226	-28.155310	-46.610013	40.067650	15.523940	49.917861	56.426791	48.637089	6.834873	64.852757	57.923656	32.741104	-6.670958	77.376089	68.592025	-7.340036	-13.767485	75.666652	67.751312
0.135000	-160.147433	-5.066637	-73.570646	-0.055868	-0.114778	-0.127516	8.176318	-22.535969	0.046132	7.110559	-10.247441	-28.209408	-46.629227	39.952938	15.503264	49.938822	56.267863	48.581214	6.865790	64.782457	57.960034	32.673595	-6.674473	77.306802	68.645350	-7.408555	-13.769458	75.609124	67.804522
0.145000	-160.147433	-5.066637	-73.570646	-0.055860	-0.114743	-0.127549	8.121804	-22.516773	0.016905	7.022136	-10.118431	-28.250422	-46.624260	39.892380	15.481063	49.990600	56.094123	48.557993	6.886009	64.734832	57.941191	32.648997	-6.676287	77.266502	68.617941	-7.446998	-13.769180	75.575825	67.828640
0.155000	-160.147433	-5.066637	-73.570646	-0.055850	-0.114770	-0.127567	8.111727	-22.486934	0.013788	6.950914	-10.050455	-28.254338	-46.574329	39.843757	15.458280	50.051509	55.898786	48.531817	6.898146	64.705238	57.871209	32.629392	-6.677036	77.256146	68.533198	-7.462113	-13.770848	75.553355	67.804151
0.165000	-160.147433	-5.066637	-73.570646	-0.055822	-0.114860	-0.127568	8.143613	-22.425928	0.036458	6.909063	-10.022764	-28.218058	-46.475289	39.779382	15.434832	50.097399	55.684812	48.478857	6.905584	64.678355	57.769856	32.592548	-6.677171	77.254408	68.429494	-7.459384	-13.775991	75.518877	67.739715
0.175000	-160.147433	-5.066637	-73.570646	-0.055776	-0.114986	-0.127547	8.205114	-22.335871	0.082814	6.892397	-10.012767	-28.157883	-46.342135	39.689262	15.410986	50.121113	55.464403	48.396539	6.911384	64.640631	57.663095	32.535964	-6.677307	77.235824	68.343726	-7.445318	-13.784064	75.458627	67.664054
0.185000	-160.147433	-5.066637	-73.570646	-0.055723	-0.115112	-0.127501	8.281611	-22.232677	0.149693	6.887332	-10.004527	-28.098838	-46.202400	39.576070	15.387480	50.135438	55.252800	48.298210	6.917537	64.589208	57.571349	32.470634	-6.677971	77.186979	68.295943	-7.426475	-13.793622	75.375519	67.605965
0.195000	-160.147433	-5.066637	-73.570646	-0.055678	-0.115214	-0.127435	8.362694	-22.133029	0.232832	6.880139	-9.992688	-28.061076	-46.083774	39.447723	15.364921	50.162140	55.061053	48.200915	6.924833	64.532792	57.501884	32.410547	-6.679214	77.112956	68.281815	-7.406934	-13.803696	75.285241	67.576096
0.205000	-160.147433	-5.066637	-73.570646	-0.055647	-0.115289	-0.127354	8.445070	-22.044707	0.327275	6.863499	-9.980872	-28.050281	-46.002085	39.312370	15.343291	50.216174	54.892501	48.115252	6.933250	64.484998	57.449335	32.364480	-6.680479	77.032211	68.277380	-7.386546	-13.814601	75.205969	67.561832
0.215000	-160.147433	-5.066637	-73.570646	-0.055630	-0.115346	-0.127265	8.531562	-21.964108	0.428646	6.837003	-9.976604	-28.056360	-45.955545	39.176606	15.321960	50.294681	54.745275	48.041771	6.942516	64.454937	57.403936	32.333123	-6.680850	76.964273	68.254587	-7.361745	-13.827598	75.148242	67.537750
0.225000	-160.147433	-5.066637	-73.570646	-0.055617	-0.115403	-0.127175	8.627406	-21.880402	0.534292	6.802657	-9.985750	-28.060300	-45.927857	39.045253	15.300167	50.376422	54.618973	47.973535	6.952435	64.440942	57.362203	32.310943	-6.679522	76.918061	68.199595	-7.328737	-13.843654	75.110040	67.484376
0.235000	-160.147433	-5.066637	-73.570646	-0.055600	-0.115476	-0.127088	8.735775	-21.782824	0.642790	6.760046	-10.008489	-28.045174	-45.897943	38.921336	15.277572	50.431514	54.519866	47.901953	6.962865	64.430958	57.332632	32.290486	-6.676215	76.887606	68.123052	-7.286864	-13.862247	75.078986	67.402964
0.245000	-160.147433	-5.066637	-73.570646	-0.055572	-0.115569	-0.127010	8.854628	-21.666961	0.751727	6.705246	-10.037652	-28.005518	-45.850474	38.806085	15.254448	50.436363	54.459045	47.822403	6.973475	64.409196	57.331540	32.266563	-6.671283	76.857154	68.055145	-7.239678	-13.881164	75.039838	67.316442
0.255000	-160.147433	-5.066637	-73.570646	-0.055532	-0.115678	-0.126943	8.976395	-21.537177	0.855702	6.633945	-10.060159	-27.950419	-45.781696	38.699226	15.231381	50.386306	54.443130	47.736934	6.983622	64.365153	57.370883	32.238208	-6.665517	76.812040	68.027306	-7.193004	-13.897435	74.982728	67.255540
